<svg version="1.2" xmlns="http://www.w3.org/2000/svg" viewBox="0 0 256 256" width="256" height="256">
	<style>
		.s0 { fill: #000000 } 
		.s1 { fill: #ffffff } 
	</style>
	<path id="Background copy" fill-rule="evenodd" class="s0" d="m127.7 236.4c-60.11 0-108.7-48.59-108.7-108.7 0-60.11 48.59-108.7 108.7-108.7 60.11 0 108.7 48.59 108.7 108.7 0 60.11-48.59 108.7-108.7 108.7z"/>
	<path id="Path 0" class="s1" d="m129.35 27l7.13 6.24-4.46 7.12 11.59 7.13v2.68l-25.84 23.16 4.45 2.67 26.73-22.27 4.46 8.02v8.91l-8.02 16.04 2.67 12.47h-39.2l2.67-12.47-8.02-15.15v-9.8l6.24-10.69 14.25-10.7-4.45-7.12 7.13-6.24zm-2.68 202.26l-6.23-3.57v-5.34l3.56-4.46-11.58-8.91 23.16-19.6 1.79-4.46-4.46-1.78-24.95 22.28-4.45-8.02v-9.8l8.02-15.15-1.78-12.47h37.42l-1.78 13.36 6.23 9.8 1.78 13.37-4.45 8.91-16.04 12.47 3.57 8.02-7.13 5.35zm-23.17-126.53h50.79l2.67 8.91h-57.02zm-8.02 12.48h65.93l6.24 4.45v6.24l-76.63 0.89-1.78-7.13zm-6.24 15.15h78.41v7.13l-6.23 4.45h-65.94l-5.34-3.56zm10.69 14.25l57.91 1.79-3.56 8.02h-51.68z"/>
</svg>