<svg version="1.2" xmlns="http://www.w3.org/2000/svg" viewBox="0 0 256 256" width="256" height="256">
	<style>
		.s0 { fill: #000000 } 
		.s1 { fill: #ffffff } 
	</style>
	<path id="Background copy" fill-rule="evenodd" class="s0" d="m127.7 236.4c-60.11 0-108.7-48.59-108.7-108.7 0-60.11 48.59-108.7 108.7-108.7 60.11 0 108.7 48.59 108.7 108.7 0 60.11-48.59 108.7-108.7 108.7z"/>
	<path id="Path 0" fill-rule="evenodd" class="s1" d="m122.42 31l8.6 11.18v6.01l17.2 7.74 8.59 13.76 0.86 11.17-10.31 24.08 0.86 8.59h-52.45l10.32-17.19 17.19-16.34 3.44-11.17-9.45 8.59-14.62 2.58-7.74 7.74-12.89-1.72-2.58-3.44-0.86-7.73 15.47-15.48 1.72-7.74 7.74-5.16 13.76-2.57 3.44-12.9zm-13.76 0l8.6 10.32-8.6 2.58-1.72-12.9zm27.51 193.44l-7.74-8.6-1.72-8.6-14.61-5.16-10.32-12.03-1.72-16.34 9.46-18.91-0.86-10.32h51.58l-10.31 17.2-15.48 13.75-3.44 11.18 6.88-6.88 12.04-0.86 13.75-10.32 13.76 2.58 2.58 11.18-16.34 14.61v5.16l-5.16 5.16-18.91 5.16-1.72 12.04zm13.76 0l-9.46-9.46 1.72-2.58 8.6-0.86 0.86 12.9zm-15.48-183.98l15.48 4.3 8.59 7.73-8.59 1.72-14.62-7.74zm25.79 13.76l8.6 12.9-9.46 0.86-6.02-11.18zm0.86 17.19l8.6 0.86v13.76l-1.72 1.72-6.88-2.58zm-0.86 15.47l7.74 2.58-6.88 13.76-6.01-4.3zm-6.88 13.76l6.88 4.29v8.6l-8.6-0.86zm-59.32 15.48h68.78l5.15 3.44 0.86 6.87-80.81 0.86v-6.88zm-6.02 14.62h80.82v6.02l-4.3 4.3h-72.22l-4.3-3.44zm7.74 13.75h8.6l1.72 7.74-2.58 4.3-6.88-3.44zm-0.86 10.32l5.16 1.72 1.72 4.29-4.3 9.46-7.74-2.58zm-6.88 14.62l8.6 2.58v12.89l-9.46-0.86zm0 17.2h8.6l6.02 12.89-7.74 1.72zm15.48 14.62l18.05 7.73 1.72 6.02-12.9-2.58-9.45-5.15-3.44-4.3z"/>
</svg>