<svg version="1.2" xmlns="http://www.w3.org/2000/svg" viewBox="0 0 256 256" width="256" height="256">
	<style>
		.s0 { fill: #000000 } 
		.s1 { fill: #ffffff } 
	</style>
	<path id="Background copy" fill-rule="evenodd" class="s0" d="m127.7 236.4c-60.11 0-108.7-48.59-108.7-108.7 0-60.11 48.59-108.7 108.7-108.7 60.11 0 108.7 48.59 108.7 108.7 0 60.11-48.59 108.7-108.7 108.7z"/>
	<path id="Path 0" class="s1" d="m130 24l6 5-5 11 8 25 14-15-1-10 4-3 8 1 2 7-8 4-3 20 14-8 3-8h7l3 3-1 5-8 1-11 14-8 19h-51l-13-25-6-7-9-3 2-7h7l5 9 12 6-2-17-9-7 3-6 7-1 5 5-1 9 14 14 7-24-5-12 6-5zm-4 207l-6-5 5-12-7-22-14 13 1 9-6 5-6-1-3-6 4-5h4l4-19-14 8-1 6-4 3h-5l-3-7 10-4 14-21 3-12h52l8 20 11 14 9 3v4l-4 3-7-1-1-7-15-9 3 19 8 3-3 8-6 1-5-3 1-10-14-15-8 24 5 11-6 5zm-26-132h56l5 10-59 1-6-1zm-8 14h73l8 6v6l-88 1v-9zm-7 17h87l1 7-7 6h-75l-7-5zm11 16h65l-4 11h-57z"/>
</svg>