<svg version="1.2" xmlns="http://www.w3.org/2000/svg" viewBox="0 0 256 256" width="256" height="256">
	<style>
		.s0 { fill: #000000 } 
		.s1 { fill: #ffffff } 
	</style>
	<path id="Background copy" fill-rule="evenodd" class="s0" d="m127.7 236.4c-60.11 0-108.7-48.59-108.7-108.7 0-60.11 48.59-108.7 108.7-108.7 60.11 0 108.7 48.59 108.7 108.7 0 60.11-48.59 108.7-108.7 108.7z"/>
	<path id="Path 0" class="s1" d="m131.97 26l0.9 7.21h8.11v7.21h-8.11v6.31h-8.11v-6.31h-9.02v-6.31l9.02-0.9 1.8-7.21zm-7.21 204.61v-7.21h-9.01v-6.31h9.01v-6.31l7.21-0.9 0.9 7.21h8.11v6.31h-8.11v7.21zm-3.6-180.27h15.32l6.31 6.31-8.11 5.4-6.31 9.92-5.41-9.01-9.01-6.31zm-22.54 7.21l9.92 0.9 8.11 4.5 8.11 11.72 1.8 9.02 4.51-0.91 4.51-14.42 12.62-9.91 15.32 0.9 5.41 5.41 0.9 6.31-4.51 9.01-12.62 9.92-1.8 7.21h-44.17l-3.6-9.02-15.32-14.42 1.8-10.82zm5.41 43.27h48.67l6.31 10.82h-61.29zm-11.72 14.42h72.11l6.31 4.5v7.21h-83.83l-0.9-6.3zm-6.31 16.22h84.73v7.21l-7.21 4.51h-69.41l-6.31-2.71zm18.03 14.42l54.98 1.81-5.41 9.01h-49.57l-5.41-8.11zm11.72 14.42h34.25l3.61 9.01 14.42 12.62 1.8 8.11-4.51 7.22-5.4 2.7-12.62-0.9-10.82-8.11-5.41-15.33-4.5-0.9-1.81 9.02-9.91 12.61-8.11 3.61-13.52-1.8-5.41-6.31 1.8-10.82 12.62-9.91 3.61-9.92zm11.71 26.14l15.33 16.22-10.82 5.41-11.72-0.9-5.41-3.6z"/>
</svg>