<svg version="1.2" xmlns="http://www.w3.org/2000/svg" viewBox="0 0 256 256" width="256" height="256">
	<style>
		.s0 { fill: #000000 } 
		.s1 { opacity: .96;fill: #ffffff } 
	</style>
	<path id="Background copy" fill-rule="evenodd" class="s0" d="m127.7 236.4c-60.11 0-108.7-48.59-108.7-108.7 0-60.11 48.59-108.7 108.7-108.7 60.11 0 108.7 48.59 108.7 108.7 0 60.11-48.59 108.7-108.7 108.7z"/>
	<path id="Path 0" class="s1" d="m165.86 36v19.25l-13.47 8.67-1.93 6.74 2.89 27.91h-50.06l1.93-32.73-14.44-12.51v-17.33h17.32v8.66h11.56v-8.66h17.32v8.66h11.56v-8.66zm-75.09 183.87v-18.29l14.44-10.59-0.96-30.8h48.13l-0.96 30.8 14.44 10.59v18.29h-17.33v-9.63h-11.55v9.63h-17.33v-9.63h-11.55v9.63zm7.7-117.45h59.68l1.93 8.67-62.58 0.96zm-6.73 12.52h72.2l6.74 3.85 0.96 7.7h-85.68l-0.96-6.74zm-6.74 16.36h86.64v7.71l-7.7 4.81h-72.2l-6.74-4.81zm12.51 15.4h63.54l-3.85 10.59h-57.76z"/>
</svg>